<?xml version="1.0" encoding="UTF-8"?><svg id="Layer_1" xmlns="http://www.w3.org/2000/svg" viewBox="0 0 1054 367"><defs><style>.cls-1,.cls-2{fill:#e97132;}.cls-3,.cls-4{fill:#fff;}.cls-5{stroke:#a02b93;}.cls-5,.cls-4,.cls-6,.cls-7{stroke-miterlimit:8;}.cls-5,.cls-6{stroke-width:4px;}.cls-5,.cls-6,.cls-7{fill:none;}.cls-4{stroke:#000;stroke-width:2px;}.cls-4,.cls-8,.cls-9,.cls-2,.cls-10{fill-rule:evenodd;}.cls-11{fill:#a6a6a6;}.cls-12{isolation:isolate;}.cls-8{fill:#5e548b;}.cls-6{stroke:#0f9ed5;}.cls-9{fill:#0e2841;}.cls-13{fill:#c1e5f5;}.cls-14{fill:#f2cfee;}.cls-10{fill:#3a3456;}.cls-7{stroke:#e97132;stroke-width:6px;}.cls-15{fill:#f2f2f2;}</style></defs><g class="cls-12"><path class="cls-3" d="M482.637,90v-11.453h5.078c1.021,0,1.797,.103,2.328,.309s.956,.569,1.273,1.09c.317,.521,.477,1.097,.477,1.727,0,.812-.263,1.497-.789,2.055-.526,.558-1.339,.911-2.438,1.062,.401,.192,.706,.383,.914,.57,.442,.406,.862,.914,1.258,1.523l1.992,3.117h-1.906l-1.516-2.383c-.443-.688-.808-1.214-1.094-1.578-.287-.364-.543-.62-.77-.766s-.457-.247-.691-.305c-.172-.036-.453-.055-.844-.055h-1.758v5.086h-1.516Zm1.516-6.398h3.258c.692,0,1.234-.071,1.625-.215s.688-.372,.891-.688,.305-.657,.305-1.027c0-.542-.197-.987-.59-1.336-.394-.349-1.015-.523-1.863-.523h-3.625v3.789Z"/><path class="cls-3" d="M493.051,90l3.031-4.312-2.805-3.984h1.758l1.273,1.945c.239,.37,.432,.68,.578,.93,.229-.344,.44-.648,.633-.914l1.398-1.961h1.68l-2.867,3.906,3.086,4.391h-1.727l-1.703-2.578-.453-.695-2.18,3.273h-1.703Z"/></g><g class="cls-12"><path class="cls-3" d="M478.191,109v-11.453h7.727v1.352h-6.211v3.547h5.375v1.352h-5.375v5.203h-1.516Z"/></g><g class="cls-12"><path class="cls-3" d="M484.879,109.195l3.32-11.844h1.125l-3.312,11.844h-1.133Z"/></g><g class="cls-12"><path class="cls-3" d="M495.84,109h-1.406v-8.961c-.339,.323-.783,.646-1.332,.969-.55,.323-1.043,.565-1.48,.727v-1.359c.786-.37,1.474-.817,2.062-1.344,.588-.526,1.005-1.036,1.25-1.531h.906v11.5Z"/></g><g class="cls-12"><path class="cls-3" d="M500.332,109v-1.602h1.602v1.602h-1.602Z"/></g><g class="cls-12"><path class="cls-3" d="M486.21,125l1.477-.125c.109,.719,.363,1.259,.762,1.621s.879,.543,1.441,.543c.677,0,1.25-.255,1.719-.766s.703-1.188,.703-2.031c0-.802-.226-1.435-.676-1.898-.451-.464-1.041-.695-1.77-.695-.453,0-.862,.103-1.227,.309-.365,.206-.651,.473-.859,.801l-1.32-.172,1.109-5.883h5.695v1.344h-4.57l-.617,3.078c.688-.479,1.409-.719,2.164-.719,1,0,1.844,.347,2.531,1.039s1.031,1.583,1.031,2.672c0,1.036-.302,1.933-.906,2.688-.734,.927-1.737,1.391-3.008,1.391-1.042,0-1.892-.292-2.551-.875-.659-.583-1.035-1.356-1.129-2.32Z"/></g><path class="cls-15" d="M218,70h137V207H218V70Z"/><path class="cls-14" d="M267,70h38V207h-38V70Z"/><path class="cls-10" d="M258,154.5c0-1.381,1.343-2.5,3-2.5s3,1.119,3,2.5-1.343,2.5-3,2.5-3-1.119-3-2.5Z"/><path class="cls-10" d="M267,159c0-1.657,1.119-3,2.5-3s2.5,1.343,2.5,3-1.119,3-2.5,3-2.5-1.343-2.5-3Z"/><path class="cls-10" d="M275,162c0-1.657,1.343-3,3-3s3,1.343,3,3-1.343,3-3,3-3-1.343-3-3Z"/><path class="cls-10" d="M284,163.5c0-1.381,1.343-2.5,3-2.5s3,1.119,3,2.5-1.343,2.5-3,2.5-3-1.119-3-2.5Z"/><path class="cls-10" d="M293,162c0-1.657,1.119-3,2.5-3s2.5,1.343,2.5,3-1.119,3-2.5,3-2.5-1.343-2.5-3Z"/><path class="cls-10" d="M301,159c0-1.657,1.343-3,3-3s3,1.343,3,3-1.343,3-3,3-3-1.343-3-3Z"/><path class="cls-10" d="M310,154.5c0-1.381,1.343-2.5,3-2.5s3,1.119,3,2.5-1.343,2.5-3,2.5-3-1.119-3-2.5Z"/><path class="cls-10" d="M223,138.5c0-1.381,1.343-2.5,3-2.5s3,1.119,3,2.5-1.343,2.5-3,2.5-3-1.119-3-2.5Z"/><path class="cls-10" d="M232,140.5c0-1.381,1.119-2.5,2.5-2.5s2.5,1.119,2.5,2.5-1.119,2.5-2.5,2.5-2.5-1.119-2.5-2.5Z"/><path class="cls-10" d="M241,143.5c0-1.381,1.119-2.5,2.5-2.5s2.5,1.119,2.5,2.5-1.119,2.5-2.5,2.5-2.5-1.119-2.5-2.5Z"/><path class="cls-10" d="M249,148.5c0-1.381,1.343-2.5,3-2.5s3,1.119,3,2.5-1.343,2.5-3,2.5-3-1.119-3-2.5Z"/><path class="cls-10" d="M319,148.5c0-1.381,1.119-2.5,2.5-2.5s2.5,1.119,2.5,2.5-1.119,2.5-2.5,2.5-2.5-1.119-2.5-2.5Z"/><path class="cls-10" d="M327,143.5c0-1.381,1.343-2.5,3-2.5s3,1.119,3,2.5-1.343,2.5-3,2.5-3-1.119-3-2.5Z"/><path class="cls-10" d="M336,140.5c0-1.381,1.119-2.5,2.5-2.5s2.5,1.119,2.5,2.5-1.119,2.5-2.5,2.5-2.5-1.119-2.5-2.5Z"/><path class="cls-10" d="M345,138.5c0-1.381,1.119-2.5,2.5-2.5s2.5,1.119,2.5,2.5-1.119,2.5-2.5,2.5-2.5-1.119-2.5-2.5Z"/><path class="cls-15" d="M218,229h137v137H218V229Z"/><path class="cls-13" d="M231,229h109v137h-109V229Z"/><path class="cls-10" d="M258,313.5c0-1.381,1.119-2.5,2.5-2.5s2.5,1.119,2.5,2.5-1.119,2.5-2.5,2.5-2.5-1.119-2.5-2.5Z"/><path class="cls-10" d="M266,318c0-1.657,1.343-3,3-3s3,1.343,3,3-1.343,3-3,3-3-1.343-3-3Z"/><path class="cls-10" d="M275,321c0-1.657,1.119-3,2.5-3s2.5,1.343,2.5,3-1.119,3-2.5,3-2.5-1.343-2.5-3Z"/><path class="cls-10" d="M283,323c0-1.657,1.343-3,3-3s3,1.343,3,3-1.343,3-3,3-3-1.343-3-3Z"/><path class="cls-10" d="M292,321c0-1.657,1.343-3,3-3s3,1.343,3,3-1.343,3-3,3-3-1.343-3-3Z"/><path class="cls-10" d="M301,318c0-1.657,1.119-3,2.5-3s2.5,1.343,2.5,3-1.119,3-2.5,3-2.5-1.343-2.5-3Z"/><path class="cls-10" d="M309,313.5c0-1.381,1.343-2.5,3-2.5s3,1.119,3,2.5-1.343,2.5-3,2.5-3-1.119-3-2.5Z"/><path class="cls-10" d="M223,297.5c0-1.381,1.119-2.5,2.5-2.5s2.5,1.119,2.5,2.5-1.119,2.5-2.5,2.5-2.5-1.119-2.5-2.5Z"/><path class="cls-10" d="M231,299.5c0-1.381,1.343-2.5,3-2.5s3,1.119,3,2.5-1.343,2.5-3,2.5-3-1.119-3-2.5Z"/><path class="cls-10" d="M240,302.5c0-1.381,1.343-2.5,3-2.5s3,1.119,3,2.5-1.343,2.5-3,2.5-3-1.119-3-2.5Z"/><path class="cls-10" d="M249,307.5c0-1.381,1.119-2.5,2.5-2.5s2.5,1.119,2.5,2.5-1.119,2.5-2.5,2.5-2.5-1.119-2.5-2.5Z"/><path class="cls-10" d="M318,307.5c0-1.381,1.343-2.5,3-2.5s3,1.119,3,2.5-1.343,2.5-3,2.5-3-1.119-3-2.5Z"/><path class="cls-10" d="M327,302.5c0-1.381,1.119-2.5,2.5-2.5s2.5,1.119,2.5,2.5-1.119,2.5-2.5,2.5-2.5-1.119-2.5-2.5Z"/><path class="cls-10" d="M335,299.5c0-1.381,1.343-2.5,3-2.5s3,1.119,3,2.5-1.343,2.5-3,2.5-3-1.119-3-2.5Z"/><path class="cls-10" d="M344,297.5c0-1.381,1.343-2.5,3-2.5s3,1.119,3,2.5-1.343,2.5-3,2.5-3-1.119-3-2.5Z"/><path class="cls-15" d="M385,71h137V208h-137V71Z"/><path class="cls-14" d="M434,71h38V208h-38V71Z"/><path class="cls-10" d="M425,156.5c0-1.381,1.119-2.5,2.5-2.5s2.5,1.119,2.5,2.5-1.119,2.5-2.5,2.5-2.5-1.119-2.5-2.5Z"/><path class="cls-10" d="M434,156.5c0-1.381,1.119-2.5,2.5-2.5s2.5,1.119,2.5,2.5-1.119,2.5-2.5,2.5-2.5-1.119-2.5-2.5Z"/><path class="cls-10" d="M442,153c0-1.657,1.343-3,3-3s3,1.343,3,3-1.343,3-3,3-3-1.343-3-3Z"/><path class="cls-10" d="M451,150.5c0-1.381,1.119-2.5,2.5-2.5s2.5,1.119,2.5,2.5-1.119,2.5-2.5,2.5-2.5-1.119-2.5-2.5Z"/><path class="cls-10" d="M459,153c0-1.657,1.343-3,3-3s3,1.343,3,3-1.343,3-3,3-3-1.343-3-3Z"/><path class="cls-10" d="M468,156.5c0-1.381,1.343-2.5,3-2.5s3,1.119,3,2.5-1.343,2.5-3,2.5-3-1.119-3-2.5Z"/><path class="cls-10" d="M477,156.5c0-1.381,1.119-2.5,2.5-2.5s2.5,1.119,2.5,2.5-1.119,2.5-2.5,2.5-2.5-1.119-2.5-2.5Z"/><path class="cls-10" d="M390,139c0-1.657,1.343-3,3-3s3,1.343,3,3-1.343,3-3,3-3-1.343-3-3Z"/><path class="cls-10" d="M399,144c0-1.657,1.119-3,2.5-3s2.5,1.343,2.5,3-1.119,3-2.5,3-2.5-1.343-2.5-3Z"/><path class="cls-10" d="M408,148c0-1.657,1.119-3,2.5-3s2.5,1.343,2.5,3-1.119,3-2.5,3-2.5-1.343-2.5-3Z"/><path class="cls-10" d="M416,152.5c0-1.381,1.343-2.5,3-2.5s3,1.119,3,2.5-1.343,2.5-3,2.5-3-1.119-3-2.5Z"/><path class="cls-10" d="M485,152.5c0-1.381,1.343-2.5,3-2.5s3,1.119,3,2.5-1.343,2.5-3,2.5-3-1.119-3-2.5Z"/><path class="cls-10" d="M494,148c0-1.657,1.343-3,3-3s3,1.343,3,3-1.343,3-3,3-3-1.343-3-3Z"/><path class="cls-10" d="M503,144c0-1.657,1.119-3,2.5-3s2.5,1.343,2.5,3-1.119,3-2.5,3-2.5-1.343-2.5-3Z"/><path class="cls-10" d="M512,139c0-1.657,1.119-3,2.5-3s2.5,1.343,2.5,3-1.119,3-2.5,3-2.5-1.343-2.5-3Z"/><path class="cls-15" d="M385,230h138v137h-138V230Z"/><path class="cls-13" d="M399,230h109v137h-109V230Z"/><path class="cls-10" d="M425,315.5c0-1.381,1.343-2.5,3-2.5s3,1.119,3,2.5-1.343,2.5-3,2.5-3-1.119-3-2.5Z"/><path class="cls-10" d="M434,316c0-1.657,1.119-3,2.5-3s2.5,1.343,2.5,3-1.119,3-2.5,3-2.5-1.343-2.5-3Z"/><path class="cls-10" d="M443,312c0-1.657,1.119-3,2.5-3s2.5,1.343,2.5,3-1.119,3-2.5,3-2.5-1.343-2.5-3Z"/><path class="cls-10" d="M451,310c0-1.657,1.343-3,3-3s3,1.343,3,3-1.343,3-3,3-3-1.343-3-3Z"/><path class="cls-10" d="M460,312c0-1.657,1.119-3,2.5-3s2.5,1.343,2.5,3-1.119,3-2.5,3-2.5-1.343-2.5-3Z"/><path class="cls-10" d="M468,316c0-1.657,1.343-3,3-3s3,1.343,3,3-1.343,3-3,3-3-1.343-3-3Z"/><path class="cls-10" d="M477,315.5c0-1.381,1.343-2.5,3-2.5s3,1.119,3,2.5-1.343,2.5-3,2.5-3-1.119-3-2.5Z"/><path class="cls-10" d="M391,298.5c0-1.381,1.119-2.5,2.5-2.5s2.5,1.119,2.5,2.5-1.119,2.5-2.5,2.5-2.5-1.119-2.5-2.5Z"/><path class="cls-10" d="M399,303c0-1.657,1.343-3,3-3s3,1.343,3,3-1.343,3-3,3-3-1.343-3-3Z"/><path class="cls-10" d="M408,307.5c0-1.381,1.343-2.5,3-2.5s3,1.119,3,2.5-1.343,2.5-3,2.5-3-1.119-3-2.5Z"/><path class="cls-10" d="M417,311.5c0-1.381,1.119-2.5,2.5-2.5s2.5,1.119,2.5,2.5-1.119,2.5-2.5,2.5-2.5-1.119-2.5-2.5Z"/><path class="cls-10" d="M486,311.5c0-1.381,1.119-2.5,2.5-2.5s2.5,1.119,2.5,2.5-1.119,2.5-2.5,2.5-2.5-1.119-2.5-2.5Z"/><path class="cls-10" d="M494,307.5c0-1.381,1.343-2.5,3-2.5s3,1.119,3,2.5-1.343,2.5-3,2.5-3-1.119-3-2.5Z"/><path class="cls-10" d="M503,303c0-1.657,1.343-3,3-3s3,1.343,3,3-1.343,3-3,3-3-1.343-3-3Z"/><path class="cls-10" d="M512,298.5c0-1.381,1.119-2.5,2.5-2.5s2.5,1.119,2.5,2.5-1.119,2.5-2.5,2.5-2.5-1.119-2.5-2.5Z"/><path class="cls-8" d="M358,206h6.849v-10l17.151,20-17.151,20v-10h-6.849v-20Z"/><path class="cls-8" d="M526,207h6.849v-10l17.151,20-17.151,20v-10h-6.849v-20Z"/><path class="cls-15" d="M552,70h137V207h-137V70Z"/><path class="cls-14" d="M601,70h38V207h-38V70Z"/><path class="cls-10" d="M592,151c0-1.657,1.343-3,3-3s3,1.343,3,3-1.343,3-3,3-3-1.343-3-3Z"/><path class="cls-10" d="M601,146.5c0-1.381,1.119-2.5,2.5-2.5s2.5,1.119,2.5,2.5-1.119,2.5-2.5,2.5-2.5-1.119-2.5-2.5Z"/><path class="cls-10" d="M609,145c0-1.657,1.343-3,3-3s3,1.343,3,3-1.343,3-3,3-3-1.343-3-3Z"/><path class="cls-10" d="M618,144c0-1.657,1.343-3,3-3s3,1.343,3,3-1.343,3-3,3-3-1.343-3-3Z"/><path class="cls-10" d="M627,145c0-1.657,1.119-3,2.5-3s2.5,1.343,2.5,3-1.119,3-2.5,3-2.5-1.343-2.5-3Z"/><path class="cls-10" d="M635,146.5c0-1.381,1.343-2.5,3-2.5s3,1.119,3,2.5-1.343,2.5-3,2.5-3-1.119-3-2.5Z"/><path class="cls-10" d="M644,151c0-1.657,1.343-3,3-3s3,1.343,3,3-1.343,3-3,3-3-1.343-3-3Z"/><path class="cls-10" d="M557,142c0-1.657,1.343-3,3-3s3,1.343,3,3-1.343,3-3,3-3-1.343-3-3Z"/><path class="cls-10" d="M566,146.5c0-1.381,1.343-2.5,3-2.5s3,1.119,3,2.5-1.343,2.5-3,2.5-3-1.119-3-2.5Z"/><path class="cls-10" d="M575,151c0-1.657,1.119-3,2.5-3s2.5,1.343,2.5,3-1.119,3-2.5,3-2.5-1.343-2.5-3Z"/><path class="cls-10" d="M583,153.5c0-1.381,1.343-2.5,3-2.5s3,1.119,3,2.5-1.343,2.5-3,2.5-3-1.119-3-2.5Z"/><path class="cls-10" d="M653,153.5c0-1.381,1.119-2.5,2.5-2.5s2.5,1.119,2.5,2.5-1.119,2.5-2.5,2.5-2.5-1.119-2.5-2.5Z"/><path class="cls-10" d="M661,151c0-1.657,1.343-3,3-3s3,1.343,3,3-1.343,3-3,3-3-1.343-3-3Z"/><path class="cls-10" d="M670,146.5c0-1.381,1.119-2.5,2.5-2.5s2.5,1.119,2.5,2.5-1.119,2.5-2.5,2.5-2.5-1.119-2.5-2.5Z"/><path class="cls-10" d="M679,142c0-1.657,1.119-3,2.5-3s2.5,1.343,2.5,3-1.119,3-2.5,3-2.5-1.343-2.5-3Z"/><path class="cls-15" d="M552,230h137v137h-137V230Z"/><path class="cls-13" d="M566,230h109v137h-109V230Z"/><path class="cls-10" d="M592,311.5c0-1.381,1.343-2.5,3-2.5s3,1.119,3,2.5-1.343,2.5-3,2.5-3-1.119-3-2.5Z"/><path class="cls-10" d="M601,307c0-1.657,1.119-3,2.5-3s2.5,1.343,2.5,3-1.119,3-2.5,3-2.5-1.343-2.5-3Z"/><path class="cls-10" d="M609,305.5c0-1.381,1.343-2.5,3-2.5s3,1.119,3,2.5-1.343,2.5-3,2.5-3-1.119-3-2.5Z"/><path class="cls-10" d="M618,304.5c0-1.381,1.343-2.5,3-2.5s3,1.119,3,2.5-1.343,2.5-3,2.5-3-1.119-3-2.5Z"/><path class="cls-10" d="M627,305.5c0-1.381,1.119-2.5,2.5-2.5s2.5,1.119,2.5,2.5-1.119,2.5-2.5,2.5-2.5-1.119-2.5-2.5Z"/><path class="cls-10" d="M635,307c0-1.657,1.343-3,3-3s3,1.343,3,3-1.343,3-3,3-3-1.343-3-3Z"/><path class="cls-10" d="M644,311.5c0-1.381,1.343-2.5,3-2.5s3,1.119,3,2.5-1.343,2.5-3,2.5-3-1.119-3-2.5Z"/><path class="cls-10" d="M557,302.5c0-1.381,1.343-2.5,3-2.5s3,1.119,3,2.5-1.343,2.5-3,2.5-3-1.119-3-2.5Z"/><path class="cls-10" d="M566,307c0-1.657,1.343-3,3-3s3,1.343,3,3-1.343,3-3,3-3-1.343-3-3Z"/><path class="cls-10" d="M575,311.5c0-1.381,1.119-2.5,2.5-2.5s2.5,1.119,2.5,2.5-1.119,2.5-2.5,2.5-2.5-1.119-2.5-2.5Z"/><path class="cls-10" d="M583,314c0-1.657,1.343-3,3-3s3,1.343,3,3-1.343,3-3,3-3-1.343-3-3Z"/><path class="cls-10" d="M653,314c0-1.657,1.119-3,2.5-3s2.5,1.343,2.5,3-1.119,3-2.5,3-2.5-1.343-2.5-3Z"/><path class="cls-10" d="M661,311.5c0-1.381,1.343-2.5,3-2.5s3,1.119,3,2.5-1.343,2.5-3,2.5-3-1.119-3-2.5Z"/><path class="cls-10" d="M670,307c0-1.657,1.119-3,2.5-3s2.5,1.343,2.5,3-1.119,3-2.5,3-2.5-1.343-2.5-3Z"/><path class="cls-10" d="M679,302.5c0-1.381,1.119-2.5,2.5-2.5s2.5,1.119,2.5,2.5-1.119,2.5-2.5,2.5-2.5-1.119-2.5-2.5Z"/><path class="cls-11" d="M793.167,322.355l3.997-204.177-1.333-.026-3.997,204.177,1.333,.026Zm7.304-202.778l-3.843-8.077-4.156,7.92,7.998,.157Z"/><path class="cls-11" d="M792.5,321.833h210.07v1.334h-210.07v-1.334Zm208.74-3.333l8,4-8,4v-8Z"/><g class="cls-12"><path class="cls-11" d="M779.68,222.023c.753,.656,1.13,1.342,1.13,2.057,0,.639-.236,1.171-.708,1.597-.472,.425-1.156,.638-2.054,.638-.82,0-1.57-.168-2.25-.505-.679-.336-1.188-.757-1.526-1.263s-.508-1.013-.508-1.521c0-.838,.404-1.471,1.212-1.897l-3.624-.762v-1.143l9.306,1.941v1.061l-.978-.203Zm-1.847,3.148c.469,0,.84-.047,1.11-.14s.496-.252,.676-.476c.18-.225,.271-.494,.271-.807,0-.521-.271-.992-.812-1.416-.72-.566-1.608-.85-2.666-.85-.533,0-.95,.139-1.251,.418s-.45,.631-.45,1.055c0,.274,.061,.525,.184,.752s.331,.45,.625,.673c.294,.222,.668,.409,1.121,.562,.452,.152,.85,.229,1.193,.229Z"/><path class="cls-11" d="M772.653,217.707l-1.302-.273v-1.143l1.302,.273v1.143Zm8.004,1.676l-6.741-1.409v-1.149l6.741,1.41v1.148Z"/><path class="cls-11" d="M778.353,216.342l-.069-1.148c.33,0,.611-.051,.845-.152,.232-.102,.423-.289,.57-.562,.148-.273,.223-.592,.223-.956,0-.508-.102-.889-.305-1.143s-.442-.381-.717-.381c-.199,0-.388,.076-.565,.229-.178,.157-.396,.539-.657,1.146-.26,.607-.443,.995-.549,1.164-.174,.284-.378,.498-.612,.642-.235,.144-.505,.216-.81,.216-.533,0-.99-.211-1.371-.635s-.571-1.016-.571-1.777c0-.846,.195-1.49,.587-1.933s.907-.672,1.546-.688l.076,1.123c-.406,.018-.728,.16-.965,.432s-.355,.654-.355,1.148c0,.398,.091,.707,.272,.928,.183,.22,.379,.33,.591,.33s.397-.096,.559-.286c.11-.127,.279-.455,.508-.983,.381-.881,.682-1.436,.901-1.664,.352-.363,.778-.545,1.282-.545,.334,0,.662,.102,.983,.308,.322,.205,.579,.519,.771,.939s.289,.917,.289,1.488c0,.778-.192,1.44-.578,1.987-.385,.545-1.011,.804-1.879,.773Z"/><path class="cls-11" d="M783.241,210.516l-9.325-1.949v-1.061l.939,.197c-.41-.394-.695-.746-.854-1.057-.159-.312-.238-.641-.238-.987,0-.644,.233-1.177,.701-1.6s1.138-.635,2.009-.635c.703,0,1.343,.116,1.921,.349,.577,.233,1.042,.52,1.394,.857,.351,.338,.609,.682,.773,1.028,.166,.347,.248,.702,.248,1.066,0,.808-.41,1.435-1.231,1.879l3.663,.762v1.149Zm-5.339-2.273c.504,0,.853-.035,1.048-.107,.274-.105,.497-.279,.666-.521s.254-.521,.254-.838c0-.66-.371-1.193-1.114-1.6-.742-.406-1.501-.609-2.275-.609-.571,0-1.013,.137-1.323,.409-.312,.273-.467,.613-.467,1.02,0,.291,.077,.562,.231,.812,.154,.249,.386,.48,.692,.694s.682,.391,1.127,.53c.443,.14,.831,.209,1.161,.209Z"/><path class="cls-11" d="M780.657,202.809l-9.306-1.941v-1.149l9.306,1.942v1.148Z"/><path class="cls-11" d="M779.819,195.287c.343,.398,.594,.781,.752,1.148,.159,.369,.238,.762,.238,1.182,0,.621-.183,1.123-.549,1.504s-.835,.571-1.406,.571c-.377,0-.71-.086-1-.257-.29-.172-.522-.398-.698-.683s-.302-.63-.378-1.041c-.051-.259-.091-.748-.12-1.47-.029-.721-.105-1.238-.229-1.552-.313-.089-.573-.134-.78-.134-.268,0-.477,.098-.629,.293-.212,.266-.317,.655-.317,1.168,0,.482,.106,.877,.32,1.184s.518,.529,.911,.67l-.102,1.161c-.669-.237-1.181-.612-1.536-1.127-.355-.514-.533-1.163-.533-1.945,0-.833,.199-1.493,.597-1.98,.296-.372,.682-.559,1.155-.559,.359,0,.776,.053,1.251,.159l1.676,.374c.533,.118,.967,.178,1.301,.178,.212,0,.517-.046,.914-.14v1.162c-.22,.062-.499,.107-.838,.133Zm-2.577-.426c.063,.161,.112,.334,.146,.518,.034,.185,.07,.492,.108,.924,.06,.668,.135,1.141,.226,1.416,.091,.274,.235,.482,.435,.621,.199,.141,.419,.21,.66,.21,.321,0,.586-.111,.794-.333,.207-.223,.311-.539,.311-.949,0-.381-.101-.747-.302-1.098-.201-.352-.481-.629-.841-.832s-.872-.361-1.536-.477Z"/><path class="cls-11" d="M778.2,187.949l.121-1.148c.842,.287,1.468,.697,1.876,1.229,.408,.53,.612,1.135,.612,1.812,0,.731-.237,1.325-.711,1.78s-1.137,.683-1.986,.683c-.736,0-1.461-.146-2.172-.438-.711-.291-1.251-.709-1.621-1.254-.37-.543-.556-1.164-.556-1.862,0-.724,.204-1.297,.612-1.72,.408-.424,.949-.635,1.622-.635l.076,1.129c-.428,.005-.762,.129-1.003,.371-.241,.244-.361,.564-.361,.963,0,.461,.146,.861,.438,1.199s.735,.604,1.33,.797c.595,.192,1.167,.289,1.717,.289,.575,0,1.007-.127,1.295-.381s.432-.567,.432-.939-.142-.729-.426-1.07c-.283-.34-.715-.607-1.295-.803Z"/><path class="cls-11" d="M778.366,181.151l.113-1.117c.555,.161,1.082,.53,1.581,1.107,.499,.578,.749,1.267,.749,2.066,0,.5-.115,.958-.346,1.375-.23,.416-.566,.734-1.006,.951-.44,.219-.942,.328-1.505,.328-.736,0-1.45-.171-2.143-.512-.691-.34-1.206-.781-1.542-1.323-.337-.542-.505-1.128-.505-1.758,0-.804,.25-1.446,.749-1.927,.499-.48,1.181-.72,2.044-.72,.33,0,.669,.03,1.016,.089v4.964c.131,.018,.25,.025,.355,.025,.631,0,1.112-.145,1.444-.436,.332-.289,.498-.644,.498-1.062,0-.394-.129-.781-.387-1.162-.259-.381-.631-.677-1.117-.889Zm-1.67,3.339v-3.784c-.118-.004-.203-.006-.254-.006-.575,0-1.017,.144-1.323,.432s-.46,.658-.46,1.111c0,.491,.169,.939,.508,1.343,.338,.403,.848,.705,1.529,.904Z"/><path class="cls-11" d="M780.657,178.878l-6.741-1.409v-1.149l1.11,.235c-.478-.427-.808-.809-.99-1.146-.182-.336-.272-.701-.272-1.095,0-.419,.111-.769,.333-1.051,.223-.281,.532-.466,.93-.555-.423-.343-.739-.704-.948-1.083-.21-.378-.314-.777-.314-1.196,0-.563,.134-.985,.399-1.267,.268-.281,.642-.422,1.124-.422,.207,0,.55,.049,1.028,.146l4.342,.908v1.149l-4.456-.927c-.364-.081-.624-.121-.78-.121-.221,0-.395,.07-.521,.209s-.189,.336-.189,.59c0,.343,.104,.692,.311,1.047s.479,.631,.815,.829c.337,.196,.854,.369,1.552,.517l3.27,.686v1.149l-4.551-.952c-.31-.068-.529-.102-.66-.102-.221,0-.398,.069-.533,.206-.136,.138-.203,.316-.203,.537,0,.326,.104,.667,.311,1.025,.207,.358,.496,.649,.866,.873s.898,.408,1.584,.552l3.187,.667v1.149Z"/><path class="cls-11" d="M778.366,163.092l.113-1.117c.555,.161,1.082,.53,1.581,1.107,.499,.578,.749,1.267,.749,2.066,0,.5-.115,.958-.346,1.374-.23,.417-.566,.734-1.006,.952-.44,.218-.942,.327-1.505,.327-.736,0-1.45-.17-2.143-.511-.691-.341-1.206-.782-1.542-1.324-.337-.542-.505-1.128-.505-1.758,0-.804,.25-1.446,.749-1.927,.499-.48,1.181-.72,2.044-.72,.33,0,.669,.03,1.016,.089v4.964c.131,.017,.25,.025,.355,.025,.631,0,1.112-.145,1.444-.435,.332-.29,.498-.644,.498-1.063,0-.394-.129-.781-.387-1.162-.259-.381-.631-.677-1.117-.889Zm-1.67,3.339v-3.783c-.118-.004-.203-.006-.254-.006-.575,0-1.017,.144-1.323,.432s-.46,.658-.46,1.111c0,.491,.169,.938,.508,1.343,.338,.404,.848,.706,1.529,.904Z"/><path class="cls-11" d="M780.657,160.813l-6.741-1.409v-1.041l1.175,.248c-.462-.453-.798-.876-1.01-1.27s-.317-.795-.317-1.206c0-.546,.148-.974,.444-1.286,.296-.311,.691-.466,1.188-.466,.249,0,.643,.055,1.18,.165l4.082,.857v1.149l-4.271-.895c-.415-.089-.722-.133-.921-.133-.225,0-.406,.077-.546,.232-.14,.154-.209,.377-.209,.669,0,.588,.211,1.112,.635,1.571,.423,.459,1.148,.797,2.177,1.013l3.136,.654v1.149Z"/><path class="cls-11" d="M779.724,150.898l.939,.19c.072,.275,.108,.542,.108,.8,0,.457-.112,.821-.337,1.092-.169,.203-.399,.305-.691,.305-.148,0-.488-.055-1.021-.165l-3.917-.819v.908l-.889-.184v-.908l-1.657-.349-.793-1.314,2.45,.514v-1.13l.889,.19v1.124l3.726,.781c.475,.097,.758,.146,.852,.146,.135,0,.238-.039,.311-.118,.072-.078,.107-.206,.107-.384,0-.254-.025-.48-.076-.679Z"/></g><g class="cls-12"><path class="cls-11" d="M976.017,336.066l-.19,.939c-.274,.072-.541,.108-.8,.108-.457,0-.82-.112-1.092-.337-.203-.169-.305-.399-.305-.691,0-.148,.056-.488,.165-1.021l.819-3.917h-.908l.185-.889h.907l.35-1.657,1.313-.793-.514,2.45h1.13l-.19,.889h-1.124l-.78,3.726c-.098,.475-.146,.758-.146,.852,0,.135,.039,.238,.118,.311,.078,.072,.206,.107,.384,.107,.254,0,.48-.025,.679-.076Z"/><path class="cls-11" d="M976.899,337l1.409-6.741h1.148l-1.409,6.741h-1.148Zm1.676-8.004l.272-1.302h1.143l-.272,1.302h-1.143Z"/><path class="cls-11" d="M979.825,337l1.409-6.741h1.149l-.235,1.11c.428-.478,.81-.808,1.146-.99,.336-.182,.701-.272,1.095-.272,.419,0,.769,.111,1.051,.333,.281,.223,.466,.532,.555,.93,.343-.423,.704-.739,1.083-.948,.378-.21,.777-.314,1.196-.314,.562,0,.984,.134,1.267,.399,.281,.268,.422,.642,.422,1.124,0,.207-.049,.55-.146,1.028l-.907,4.342h-1.149l.927-4.456c.081-.364,.121-.624,.121-.78,0-.221-.07-.395-.21-.521s-.336-.189-.59-.189c-.343,0-.692,.104-1.048,.311s-.631,.479-.828,.815c-.196,.337-.369,.854-.518,1.552l-.686,3.27h-1.148l.952-4.551c.067-.31,.102-.529,.102-.66,0-.221-.069-.398-.206-.533-.138-.136-.316-.203-.537-.203-.325,0-.667,.104-1.024,.311-.358,.207-.649,.496-.873,.866-.225,.37-.408,.898-.553,1.584l-.666,3.187h-1.149Z"/><path class="cls-11" d="M995.612,334.709l1.117,.113c-.161,.555-.53,1.082-1.107,1.581-.578,.499-1.267,.749-2.066,.749-.5,0-.958-.115-1.374-.346-.417-.23-.734-.566-.952-1.006-.219-.44-.327-.942-.327-1.505,0-.736,.17-1.45,.511-2.143,.341-.691,.782-1.206,1.323-1.542,.542-.337,1.128-.505,1.759-.505,.804,0,1.446,.25,1.927,.749,.479,.499,.72,1.181,.72,2.044,0,.33-.029,.669-.089,1.016h-4.964c-.017,.131-.025,.25-.025,.355,0,.631,.146,1.112,.436,1.444,.289,.332,.644,.498,1.062,.498,.394,0,.781-.129,1.162-.387,.381-.259,.677-.631,.889-1.117Zm-3.339-1.67h3.783c.004-.118,.006-.203,.006-.254,0-.575-.144-1.017-.432-1.323-.287-.307-.658-.46-1.11-.46-.491,0-.938,.169-1.343,.508-.404,.338-.706,.848-.904,1.529Z"/></g><path class="cls-5" d="M801,313c10.862-82.461,18.33-167.158,31.333-175.526,13.004-8.367,20.575,96.431,46.687,125.32,26.11,28.888,50.81,40.311,109.98,48.012"/><path class="cls-6" d="M801,313c10.862-82.532,18.177-127.071,31.494-139.007,13.317-11.937,18.713,32.193,48.408,67.387,29.698,35.195,63.818,53.309,108.098,69.424"/><path class="cls-7" d="M840.906,200.322c-1.595-5.163,3.63-11.362,11.67-13.846,8.04-2.483,15.85-.31,17.445,4.854,1.595,5.163-3.63,11.362-11.67,13.846-8.04,2.483-15.85,.31-17.445-4.854Z"/><g class="cls-12"><path class="cls-1" d="M871.02,160.807l.58-2.808h1.846l.461-2.241,4.338-2.61-1.016,4.852h2.308l-.58,2.808h-2.32l-1.227,5.867c-.22,1.063-.329,1.67-.329,1.819,0,.29,.092,.517,.276,.679,.185,.163,.519,.244,1.002,.244,.167,0,.585-.03,1.253-.092l-.594,2.808c-.65,.132-1.318,.198-2.004,.198-1.336,0-2.307-.258-2.913-.771-.606-.515-.91-1.229-.91-2.143,0-.431,.163-1.424,.488-2.979l1.173-5.63h-1.832Z"/></g><g class="cls-12"><path class="cls-1" d="M880.018,166.935v-1.819h1.582v1.819h-1.582Zm0,11.065v-9.334h1.582v9.334h-1.582Z"/><path class="cls-1" d="M884.008,178v-9.334h1.424v1.327c.686-1.025,1.676-1.538,2.971-1.538,.562,0,1.079,.102,1.551,.303,.472,.203,.825,.468,1.06,.796s.398,.718,.492,1.169c.059,.293,.088,.806,.088,1.538v5.739h-1.582v-5.678c0-.645-.062-1.126-.185-1.445s-.342-.574-.655-.766c-.313-.189-.681-.285-1.103-.285-.674,0-1.256,.214-1.745,.642s-.733,1.239-.733,2.435v5.098h-1.582Z"/><path class="cls-1" d="M897.473,176.585l.229,1.397c-.445,.094-.844,.141-1.195,.141-.574,0-1.02-.091-1.336-.272s-.539-.42-.668-.716-.193-.919-.193-1.868v-5.37h-1.16v-1.23h1.16v-2.312l1.573-.949v3.261h1.591v1.23h-1.591v5.458c0,.451,.027,.741,.083,.87s.146,.231,.272,.308,.307,.114,.541,.114c.176,0,.407-.021,.694-.062Z"/></g><path class="cls-15" d="M0,141H137v137H0V141Z"/><path class="cls-10" d="M40,225.5c0-1.381,1.119-2.5,2.5-2.5s2.5,1.119,2.5,2.5-1.119,2.5-2.5,2.5-2.5-1.119-2.5-2.5Z"/><path class="cls-10" d="M48,229.5c0-1.381,1.343-2.5,3-2.5s3,1.119,3,2.5-1.343,2.5-3,2.5-3-1.119-3-2.5Z"/><path class="cls-10" d="M57,233c0-1.657,1.343-3,3-3s3,1.343,3,3-1.343,3-3,3-3-1.343-3-3Z"/><path class="cls-10" d="M66,234.5c0-1.381,1.119-2.5,2.5-2.5s2.5,1.119,2.5,2.5-1.119,2.5-2.5,2.5-2.5-1.119-2.5-2.5Z"/><path class="cls-10" d="M74,233c0-1.657,1.343-3,3-3s3,1.343,3,3-1.343,3-3,3-3-1.343-3-3Z"/><path class="cls-10" d="M83,229.5c0-1.381,1.119-2.5,2.5-2.5s2.5,1.119,2.5,2.5-1.119,2.5-2.5,2.5-2.5-1.119-2.5-2.5Z"/><path class="cls-10" d="M92,225.5c0-1.381,1.119-2.5,2.5-2.5s2.5,1.119,2.5,2.5-1.119,2.5-2.5,2.5-2.5-1.119-2.5-2.5Z"/><path class="cls-10" d="M5,209.5c0-1.381,1.343-2.5,3-2.5s3,1.119,3,2.5-1.343,2.5-3,2.5-3-1.119-3-2.5Z"/><path class="cls-10" d="M14,211c0-1.657,1.119-3,2.5-3s2.5,1.343,2.5,3-1.119,3-2.5,3-2.5-1.343-2.5-3Z"/><path class="cls-10" d="M23,214.5c0-1.381,1.119-2.5,2.5-2.5s2.5,1.119,2.5,2.5-1.119,2.5-2.5,2.5-2.5-1.119-2.5-2.5Z"/><path class="cls-10" d="M31,219c0-1.657,1.343-3,3-3s3,1.343,3,3-1.343,3-3,3-3-1.343-3-3Z"/><path class="cls-10" d="M100,219c0-1.657,1.343-3,3-3s3,1.343,3,3-1.343,3-3,3-3-1.343-3-3Z"/><path class="cls-10" d="M109,214.5c0-1.381,1.343-2.5,3-2.5s3,1.119,3,2.5-1.343,2.5-3,2.5-3-1.119-3-2.5Z"/><path class="cls-10" d="M118,211c0-1.657,1.119-3,2.5-3s2.5,1.343,2.5,3-1.119,3-2.5,3-2.5-1.343-2.5-3Z"/><path class="cls-10" d="M126,209.5c0-1.381,1.343-2.5,3-2.5s3,1.119,3,2.5-1.343,2.5-3,2.5-3-1.119-3-2.5Z"/><path class="cls-9" d="M145,206h32.415v-10l28.585,20-28.585,20v-10h-32.415v-20Z"/><path class="cls-9" d="M702,206h31.415v-10l28.585,20-28.585,20v-10h-31.415v-20Z"/><path class="cls-9" d="M0,0H167l20,20-20,20H0V0Z"/><g class="cls-12"><path class="cls-3" d="M54.833,27h-3.773l-1.5-3.902h-6.867l-1.418,3.902h-3.68l6.691-17.18h3.668l6.879,17.18Zm-6.387-6.797l-2.367-6.375-2.32,6.375h4.688Z"/><path class="cls-3" d="M56.685,27V9.82h7.301c1.836,0,3.17,.154,4.002,.463s1.498,.857,1.998,1.646,.75,1.691,.75,2.707c0,1.289-.379,2.354-1.137,3.193s-1.891,1.369-3.398,1.588c.75,.438,1.369,.918,1.857,1.441s1.146,1.453,1.975,2.789l2.098,3.352h-4.148l-2.508-3.738c-.891-1.336-1.5-2.178-1.828-2.525s-.676-.586-1.043-.715-.949-.193-1.746-.193h-.703v7.172h-3.469Zm3.469-9.914h2.566c1.664,0,2.703-.07,3.117-.211s.738-.383,.973-.727,.352-.773,.352-1.289c0-.578-.154-1.045-.463-1.4s-.744-.58-1.307-.674c-.281-.039-1.125-.059-2.531-.059h-2.707v4.359Z"/><path class="cls-3" d="M74.029,27V9.82h11.777v2.906h-8.309v4.066h7.172v2.906h-7.172v7.301h-3.469Z"/><path class="cls-3" d="M95.333,27V9.82h5.566c2.109,0,3.484,.086,4.125,.258,.984,.258,1.809,.818,2.473,1.682s.996,1.979,.996,3.346c0,1.055-.191,1.941-.574,2.66s-.869,1.283-1.459,1.693-1.189,.682-1.799,.814c-.828,.164-2.027,.246-3.598,.246h-2.262v6.48h-3.469Zm3.469-14.273v4.875h1.898c1.367,0,2.281-.09,2.742-.27s.822-.461,1.084-.844,.393-.828,.393-1.336c0-.625-.184-1.141-.551-1.547s-.832-.66-1.395-.762c-.414-.078-1.246-.117-2.496-.117h-1.676Z"/><path class="cls-3" d="M119.509,27v-1.863c-.453,.664-1.049,1.188-1.787,1.57s-1.518,.574-2.338,.574c-.836,0-1.586-.184-2.25-.551s-1.145-.883-1.441-1.547-.445-1.582-.445-2.754v-7.875h3.293v5.719c0,1.75,.061,2.822,.182,3.217s.342,.707,.662,.938,.727,.346,1.219,.346c.562,0,1.066-.154,1.512-.463s.75-.691,.914-1.148,.246-1.576,.246-3.357v-5.25h3.293v12.445h-3.059Z"/><path class="cls-3" d="M124.818,23.449l3.305-.504c.141,.641,.426,1.127,.855,1.459s1.031,.498,1.805,.498c.852,0,1.492-.156,1.922-.469,.289-.219,.434-.512,.434-.879,0-.25-.078-.457-.234-.621-.164-.156-.531-.301-1.102-.434-2.656-.586-4.34-1.121-5.051-1.605-.984-.672-1.477-1.605-1.477-2.801,0-1.078,.426-1.984,1.277-2.719s2.172-1.102,3.961-1.102c1.703,0,2.969,.277,3.797,.832s1.398,1.375,1.711,2.461l-3.105,.574c-.133-.484-.385-.855-.756-1.113s-.9-.387-1.588-.387c-.867,0-1.488,.121-1.863,.363-.25,.172-.375,.395-.375,.668,0,.234,.109,.434,.328,.598,.297,.219,1.322,.527,3.076,.926s2.979,.887,3.674,1.465c.688,.586,1.031,1.402,1.031,2.449,0,1.141-.477,2.121-1.43,2.941s-2.363,1.23-4.23,1.23c-1.695,0-3.037-.344-4.025-1.031s-1.635-1.621-1.939-2.801Z"/><path class="cls-3" d="M142.607,9.82v6.316c1.062-1.242,2.332-1.863,3.809-1.863,.758,0,1.441,.141,2.051,.422s1.068,.641,1.377,1.078,.52,.922,.633,1.453,.17,1.355,.17,2.473v7.301h-3.293v-6.574c0-1.305-.062-2.133-.188-2.484s-.346-.631-.662-.838-.713-.311-1.189-.311c-.547,0-1.035,.133-1.465,.398s-.744,.666-.943,1.201-.299,1.326-.299,2.373v6.234h-3.293V9.82h3.293Z"/></g><path class="cls-9" d="M188,0H724l20,20-20,20H188l20-20L188,0Z"/><g class="cls-12"><path class="cls-3" d="M430.556,27h-3.773l-1.5-3.902h-6.867l-1.418,3.902h-3.68l6.691-17.18h3.668l6.879,17.18Zm-6.387-6.797l-2.367-6.375-2.32,6.375h4.688Z"/><path class="cls-3" d="M432.408,27V9.82h7.301c1.836,0,3.17,.154,4.002,.463s1.498,.857,1.998,1.646,.75,1.691,.75,2.707c0,1.289-.379,2.354-1.137,3.193s-1.891,1.369-3.398,1.588c.75,.438,1.369,.918,1.857,1.441s1.146,1.453,1.975,2.789l2.098,3.352h-4.148l-2.508-3.738c-.891-1.336-1.5-2.178-1.828-2.525s-.676-.586-1.043-.715-.949-.193-1.746-.193h-.703v7.172h-3.469Zm3.469-9.914h2.566c1.664,0,2.703-.07,3.117-.211s.738-.383,.973-.727,.352-.773,.352-1.289c0-.578-.154-1.045-.463-1.4s-.744-.58-1.307-.674c-.281-.039-1.125-.059-2.531-.059h-2.707v4.359Z"/><path class="cls-3" d="M449.751,27V9.82h11.777v2.906h-8.309v4.066h7.172v2.906h-7.172v7.301h-3.469Z"/><path class="cls-3" d="M474.923,27V12.727h-5.098v-2.906h13.652v2.906h-5.086v14.273h-3.469Z"/><path class="cls-3" d="M487.521,27h-3.293V14.555h3.059v1.77c.523-.836,.994-1.387,1.412-1.652s.893-.398,1.424-.398c.75,0,1.473,.207,2.168,.621l-1.02,2.871c-.555-.359-1.07-.539-1.547-.539-.461,0-.852,.127-1.172,.381s-.572,.713-.756,1.377-.275,2.055-.275,4.172v3.844Z"/><path class="cls-3" d="M496.169,18.352l-2.988-.539c.336-1.203,.914-2.094,1.734-2.672s2.039-.867,3.656-.867c1.469,0,2.562,.174,3.281,.521s1.225,.789,1.518,1.324,.439,1.518,.439,2.947l-.035,3.844c0,1.094,.053,1.9,.158,2.42s.303,1.076,.592,1.67h-3.258c-.086-.219-.191-.543-.316-.973-.055-.195-.094-.324-.117-.387-.562,.547-1.164,.957-1.805,1.23s-1.324,.41-2.051,.41c-1.281,0-2.291-.348-3.029-1.043s-1.107-1.574-1.107-2.637c0-.703,.168-1.33,.504-1.881s.807-.973,1.412-1.266,1.479-.549,2.619-.768c1.539-.289,2.605-.559,3.199-.809v-.328c0-.633-.156-1.084-.469-1.354s-.902-.404-1.77-.404c-.586,0-1.043,.115-1.371,.346s-.594,.635-.797,1.213Zm4.406,2.672c-.422,.141-1.09,.309-2.004,.504s-1.512,.387-1.793,.574c-.43,.305-.645,.691-.645,1.16,0,.461,.172,.859,.516,1.195s.781,.504,1.312,.504c.594,0,1.16-.195,1.699-.586,.398-.297,.66-.66,.785-1.09,.086-.281,.129-.816,.129-1.605v-.656Z"/><path class="cls-3" d="M517.908,18.234l-3.246,.586c-.109-.648-.357-1.137-.744-1.465s-.889-.492-1.506-.492c-.82,0-1.475,.283-1.963,.85s-.732,1.514-.732,2.842c0,1.477,.248,2.52,.744,3.129s1.162,.914,1.998,.914c.625,0,1.137-.178,1.535-.533s.68-.967,.844-1.834l3.234,.551c-.336,1.484-.98,2.605-1.934,3.363s-2.23,1.137-3.832,1.137c-1.82,0-3.271-.574-4.354-1.723s-1.623-2.738-1.623-4.77c0-2.055,.543-3.654,1.629-4.799s2.555-1.717,4.406-1.717c1.516,0,2.721,.326,3.615,.979s1.537,1.646,1.928,2.982Z"/><path class="cls-3" d="M520.287,27V9.82h3.293v9.117l3.856-4.383h4.055l-4.254,4.547,4.559,7.898h-3.551l-3.129-5.59-1.535,1.605v3.984h-3.293Z"/></g><path class="cls-9" d="M912,0h142V40h-308l19.832-19.945L746,.109h166v-.109Z"/><g class="cls-12"><path class="cls-3" d="M833.716,27V9.82h5.566c2.109,0,3.484,.086,4.125,.258,.984,.258,1.809,.818,2.473,1.682s.996,1.979,.996,3.346c0,1.055-.191,1.941-.574,2.66s-.869,1.283-1.459,1.693-1.189,.682-1.799,.814c-.828,.164-2.027,.246-3.598,.246h-2.262v6.48h-3.469Zm3.469-14.273v4.875h1.898c1.367,0,2.281-.09,2.742-.27s.822-.461,1.084-.844,.393-.828,.393-1.336c0-.625-.184-1.141-.551-1.547s-.832-.66-1.395-.762c-.414-.078-1.246-.117-2.496-.117h-1.676Z"/><path class="cls-3" d="M848.938,20.602c0-1.094,.27-2.152,.809-3.176s1.303-1.805,2.291-2.344,2.092-.809,3.311-.809c1.883,0,3.426,.611,4.629,1.834s1.805,2.768,1.805,4.635c0,1.883-.607,3.443-1.822,4.682s-2.744,1.857-4.588,1.857c-1.141,0-2.229-.258-3.264-.773s-1.822-1.271-2.361-2.268-.809-2.209-.809-3.639Zm3.375,.176c0,1.234,.293,2.18,.879,2.836s1.309,.984,2.168,.984,1.58-.328,2.162-.984,.873-1.609,.873-2.859c0-1.219-.291-2.156-.873-2.812s-1.303-.984-2.162-.984-1.582,.328-2.168,.984-.879,1.602-.879,2.836Z"/><path class="cls-3" d="M863.2,23.449l3.305-.504c.141,.641,.426,1.127,.855,1.459s1.031,.498,1.805,.498c.852,0,1.492-.156,1.922-.469,.289-.219,.434-.512,.434-.879,0-.25-.078-.457-.234-.621-.164-.156-.531-.301-1.102-.434-2.656-.586-4.34-1.121-5.051-1.605-.984-.672-1.477-1.605-1.477-2.801,0-1.078,.426-1.984,1.277-2.719s2.172-1.102,3.961-1.102c1.703,0,2.969,.277,3.797,.832s1.398,1.375,1.711,2.461l-3.105,.574c-.133-.484-.385-.855-.756-1.113s-.9-.387-1.588-.387c-.867,0-1.488,.121-1.863,.363-.25,.172-.375,.395-.375,.668,0,.234,.109,.434,.328,.598,.297,.219,1.322,.527,3.076,.926s2.979,.887,3.674,1.465c.688,.586,1.031,1.402,1.031,2.449,0,1.141-.477,2.121-1.43,2.941s-2.363,1.23-4.23,1.23c-1.695,0-3.037-.344-4.025-1.031s-1.635-1.621-1.939-2.801Z"/><path class="cls-3" d="M883.415,14.555v2.625h-2.25v5.016c0,1.016,.021,1.607,.064,1.775s.141,.307,.293,.416,.338,.164,.557,.164c.305,0,.746-.105,1.324-.316l.281,2.555c-.766,.328-1.633,.492-2.602,.492-.594,0-1.129-.1-1.605-.299s-.826-.457-1.049-.773-.377-.744-.463-1.283c-.07-.383-.105-1.156-.105-2.32v-5.426h-1.512v-2.625h1.512v-2.473l3.305-1.922v4.395h2.25Z"/><path class="cls-3" d="M885.606,14.555h3.07v1.828c.398-.625,.938-1.133,1.617-1.523s1.434-.586,2.262-.586c1.445,0,2.672,.566,3.68,1.699s1.512,2.711,1.512,4.734c0,2.078-.508,3.693-1.523,4.846s-2.246,1.729-3.691,1.729c-.688,0-1.311-.137-1.869-.41s-1.146-.742-1.764-1.406v6.27h-3.293V14.555Zm3.258,6.012c0,1.398,.277,2.432,.832,3.1s1.23,1.002,2.027,1.002c.766,0,1.402-.307,1.91-.92s.762-1.619,.762-3.018c0-1.305-.262-2.273-.785-2.906s-1.172-.949-1.945-.949c-.805,0-1.473,.311-2.004,.932s-.797,1.541-.797,2.76Z"/><path class="cls-3" d="M903.513,27h-3.293V14.555h3.059v1.77c.523-.836,.994-1.387,1.412-1.652s.893-.398,1.424-.398c.75,0,1.473,.207,2.168,.621l-1.02,2.871c-.555-.359-1.07-.539-1.547-.539-.461,0-.852,.127-1.172,.381s-.572,.713-.756,1.377-.275,2.055-.275,4.172v3.844Z"/><path class="cls-3" d="M908.938,20.602c0-1.094,.27-2.152,.809-3.176s1.303-1.805,2.291-2.344,2.092-.809,3.311-.809c1.883,0,3.426,.611,4.629,1.834s1.805,2.768,1.805,4.635c0,1.883-.607,3.443-1.822,4.682s-2.744,1.857-4.588,1.857c-1.141,0-2.229-.258-3.264-.773s-1.822-1.271-2.361-2.268-.809-2.209-.809-3.639Zm3.375,.176c0,1.234,.293,2.18,.879,2.836s1.309,.984,2.168,.984,1.58-.328,2.162-.984,.873-1.609,.873-2.859c0-1.219-.291-2.156-.873-2.812s-1.303-.984-2.162-.984-1.582,.328-2.168,.984-.879,1.602-.879,2.836Z"/><path class="cls-3" d="M935.212,18.234l-3.246,.586c-.109-.648-.357-1.137-.744-1.465s-.889-.492-1.506-.492c-.82,0-1.475,.283-1.963,.85s-.732,1.514-.732,2.842c0,1.477,.248,2.52,.744,3.129s1.162,.914,1.998,.914c.625,0,1.137-.178,1.535-.533s.68-.967,.844-1.834l3.234,.551c-.336,1.484-.98,2.605-1.934,3.363s-2.23,1.137-3.832,1.137c-1.82,0-3.271-.574-4.354-1.723s-1.623-2.738-1.623-4.77c0-2.055,.543-3.654,1.629-4.799s2.555-1.717,4.406-1.717c1.516,0,2.721,.326,3.615,.979s1.537,1.646,1.928,2.982Z"/><path class="cls-3" d="M944.915,23.039l3.281,.551c-.422,1.203-1.088,2.119-1.998,2.748s-2.049,.943-3.416,.943c-2.164,0-3.766-.707-4.805-2.121-.82-1.133-1.23-2.562-1.23-4.289,0-2.062,.539-3.678,1.617-4.846s2.441-1.752,4.09-1.752c1.852,0,3.312,.611,4.383,1.834s1.582,3.096,1.535,5.619h-8.25c.023,.977,.289,1.736,.797,2.279s1.141,.814,1.898,.814c.516,0,.949-.141,1.301-.422s.617-.734,.797-1.359Zm.188-3.328c-.023-.953-.27-1.678-.738-2.174s-1.039-.744-1.711-.744c-.719,0-1.312,.262-1.781,.785s-.699,1.234-.691,2.133h4.922Z"/><path class="cls-3" d="M949.896,23.449l3.305-.504c.141,.641,.426,1.127,.855,1.459s1.031,.498,1.805,.498c.852,0,1.492-.156,1.922-.469,.289-.219,.434-.512,.434-.879,0-.25-.078-.457-.234-.621-.164-.156-.531-.301-1.102-.434-2.656-.586-4.34-1.121-5.051-1.605-.984-.672-1.477-1.605-1.477-2.801,0-1.078,.426-1.984,1.277-2.719s2.172-1.102,3.961-1.102c1.703,0,2.969,.277,3.797,.832s1.398,1.375,1.711,2.461l-3.105,.574c-.133-.484-.385-.855-.756-1.113s-.9-.387-1.588-.387c-.867,0-1.488,.121-1.863,.363-.25,.172-.375,.395-.375,.668,0,.234,.109,.434,.328,.598,.297,.219,1.322,.527,3.076,.926s2.979,.887,3.674,1.465c.688,.586,1.031,1.402,1.031,2.449,0,1.141-.477,2.121-1.43,2.941s-2.363,1.23-4.23,1.23c-1.695,0-3.037-.344-4.025-1.031s-1.635-1.621-1.939-2.801Z"/><path class="cls-3" d="M963.243,23.449l3.305-.504c.141,.641,.426,1.127,.855,1.459s1.031,.498,1.805,.498c.852,0,1.492-.156,1.922-.469,.289-.219,.434-.512,.434-.879,0-.25-.078-.457-.234-.621-.164-.156-.531-.301-1.102-.434-2.656-.586-4.34-1.121-5.051-1.605-.984-.672-1.477-1.605-1.477-2.801,0-1.078,.426-1.984,1.277-2.719s2.172-1.102,3.961-1.102c1.703,0,2.969,.277,3.797,.832s1.398,1.375,1.711,2.461l-3.105,.574c-.133-.484-.385-.855-.756-1.113s-.9-.387-1.588-.387c-.867,0-1.488,.121-1.863,.363-.25,.172-.375,.395-.375,.668,0,.234,.109,.434,.328,.598,.297,.219,1.322,.527,3.076,.926s2.979,.887,3.674,1.465c.688,.586,1.031,1.402,1.031,2.449,0,1.141-.477,2.121-1.43,2.941s-2.363,1.23-4.23,1.23c-1.695,0-3.037-.344-4.025-1.031s-1.635-1.621-1.939-2.801Z"/></g><g class="cls-12"><path class="cls-1" d="M997.865,161.678h8.648l-1.74,8.292c-1.02,.659-2.27,1.218-3.751,1.675-1.481,.456-2.99,.686-4.528,.686-2.391,0-4.223-.541-5.498-1.622-1.74-1.477-2.609-3.616-2.609-6.421,0-1.88,.373-3.682,1.12-5.404,.896-2.074,2.171-3.683,3.823-4.826,1.652-1.142,3.595-1.713,5.827-1.713s4.022,.519,5.372,1.555c1.35,1.038,2.244,2.55,2.684,4.535l-3.705,.422c-.325-1.089-.851-1.911-1.575-2.465-.726-.554-1.638-.83-2.735-.83-1.283,0-2.461,.334-3.533,1.002s-1.912,1.7-2.519,3.098-.909,2.923-.909,4.574c0,1.627,.369,2.828,1.107,3.606,.738,.777,1.818,1.167,3.242,1.167,.854,0,1.728-.121,2.624-.363,.896-.241,1.67-.529,2.32-.863l.593-2.874h-4.93l.672-3.229Z"/></g><path class="cls-1" d="M922,167l47.83,.114v2l-47.83-.114v-2Zm46.51-2.889l7.99,4.019-8.01,3.981,.02-8Z"/><path class="cls-2" d="M27,187h20.25v-34h40.5v34h20.25l-40.5,34-40.5-34Z"/><path class="cls-4" d="M275,217c0-7.732,6.044-14,13.5-14s13.5,6.268,13.5,14-6.044,14-13.5,14-13.5-6.268-13.5-14Z"/><g class="cls-12"><path d="M294.376,222.973v2.027h-11.355c-.016-.508,.066-.996,.246-1.465,.289-.773,.752-1.535,1.389-2.285s1.557-1.617,2.76-2.602c1.867-1.531,3.129-2.744,3.785-3.639s.984-1.74,.984-2.537c0-.836-.299-1.541-.896-2.115s-1.377-.861-2.338-.861c-1.016,0-1.828,.305-2.438,.914s-.918,1.453-.926,2.531l-2.168-.223c.148-1.617,.707-2.85,1.676-3.697s2.27-1.271,3.902-1.271c1.648,0,2.953,.457,3.914,1.371s1.441,2.047,1.441,3.398c0,.688-.141,1.363-.422,2.027s-.748,1.363-1.4,2.098-1.736,1.742-3.252,3.023c-1.266,1.062-2.078,1.783-2.438,2.162s-.656,.76-.891,1.143h8.426Z"/></g><path class="cls-4" d="M440,217c0-7.732,6.268-14,14-14s14,6.268,14,14-6.268,14-14,14-14-6.268-14-14Z"/><g class="cls-12"><path d="M448.572,220.465l2.109-.281c.242,1.195,.654,2.057,1.236,2.584s1.291,.791,2.127,.791c.992,0,1.83-.344,2.514-1.031s1.025-1.539,1.025-2.555c0-.969-.316-1.768-.949-2.396s-1.438-.943-2.414-.943c-.398,0-.895,.078-1.488,.234l.234-1.852c.141,.016,.254,.023,.34,.023,.898,0,1.707-.234,2.426-.703s1.078-1.191,1.078-2.168c0-.773-.262-1.414-.785-1.922s-1.199-.762-2.027-.762c-.82,0-1.504,.258-2.051,.773s-.898,1.289-1.055,2.32l-2.109-.375c.258-1.414,.844-2.51,1.758-3.287s2.051-1.166,3.41-1.166c.938,0,1.801,.201,2.59,.604s1.393,.951,1.811,1.646,.627,1.434,.627,2.215c0,.742-.199,1.418-.598,2.027s-.988,1.094-1.77,1.453c1.016,.234,1.805,.721,2.367,1.459s.844,1.662,.844,2.771c0,1.5-.547,2.771-1.641,3.814s-2.477,1.564-4.148,1.564c-1.508,0-2.76-.449-3.756-1.348s-1.564-2.062-1.705-3.492Z"/></g><path class="cls-4" d="M607,216.5c0-7.456,6.044-13.5,13.5-13.5s13.5,6.044,13.5,13.5-6.044,13.5-13.5,13.5-13.5-6.044-13.5-13.5Z"/><g class="cls-12"><path d="M621.923,224v-4.113h-7.453v-1.934l7.84-11.133h1.723v11.133h2.32v1.934h-2.32v4.113h-2.109Zm0-6.047v-7.746l-5.379,7.746h5.379Z"/></g><path class="cls-4" d="M823,329.5c0-7.456,6.268-13.5,14-13.5s14,6.044,14,13.5-6.268,13.5-14,13.5-14-6.044-14-13.5Z"/><g class="cls-12"><path d="M842.524,334.973v2.027h-11.355c-.016-.508,.066-.996,.246-1.465,.289-.773,.752-1.535,1.389-2.285s1.557-1.617,2.76-2.602c1.867-1.531,3.129-2.744,3.785-3.639s.984-1.74,.984-2.537c0-.836-.299-1.541-.896-2.115s-1.377-.861-2.338-.861c-1.016,0-1.828,.305-2.438,.914s-.918,1.453-.926,2.531l-2.168-.223c.148-1.617,.707-2.85,1.676-3.697s2.27-1.271,3.902-1.271c1.648,0,2.953,.457,3.914,1.371s1.441,2.047,1.441,3.398c0,.688-.141,1.363-.422,2.027s-.748,1.363-1.4,2.098-1.736,1.742-3.252,3.023c-1.266,1.062-2.078,1.783-2.438,2.162s-.656,.76-.891,1.143h8.426Z"/></g><path class="cls-4" d="M880,329c0-7.732,6.268-14,14-14s14,6.268,14,14-6.27,14-14,14-14-6.268-14-14Z"/><g class="cls-12"><path d="M888.748,331.465l2.109-.281c.242,1.195,.654,2.057,1.236,2.584s1.291,.791,2.127,.791c.992,0,1.83-.344,2.514-1.031s1.025-1.539,1.025-2.555c0-.969-.316-1.768-.949-2.396s-1.438-.943-2.414-.943c-.398,0-.895,.078-1.488,.234l.234-1.852c.141,.016,.254,.023,.34,.023,.898,0,1.707-.234,2.426-.703s1.078-1.191,1.078-2.168c0-.773-.262-1.414-.785-1.922s-1.199-.762-2.027-.762c-.82,0-1.504,.258-2.051,.773s-.898,1.289-1.055,2.32l-2.109-.375c.258-1.414,.844-2.51,1.758-3.287s2.051-1.166,3.41-1.166c.938,0,1.801,.201,2.59,.604s1.393,.951,1.811,1.646,.627,1.434,.627,2.215c0,.742-.199,1.418-.598,2.027s-.988,1.094-1.77,1.453c1.016,.234,1.805,.721,2.367,1.459s.844,1.662,.844,2.771c0,1.5-.547,2.771-1.641,3.814s-2.477,1.564-4.148,1.564c-1.508,0-2.76-.449-3.756-1.348s-1.564-2.062-1.705-3.492Z"/></g><path class="cls-4" d="M933,326.5c0-7.456,6.04-13.5,13.5-13.5s13.5,6.044,13.5,13.5-6.04,13.5-13.5,13.5-13.5-6.044-13.5-13.5Z"/><g class="cls-12"><path d="M947.678,334v-4.113h-7.453v-1.934l7.84-11.133h1.723v11.133h2.32v1.934h-2.32v4.113h-2.109Zm0-6.047v-7.746l-5.379,7.746h5.379Z"/></g><path class="cls-4" d="M54,151c0-7.732,6.044-14,13.5-14s13.5,6.268,13.5,14-6.044,14-13.5,14-13.5-6.268-13.5-14Z"/><g class="cls-12"><path d="M70.137,159h-2.109v-13.441c-.508,.484-1.174,.969-1.998,1.453s-1.564,.848-2.221,1.09v-2.039c1.18-.555,2.211-1.227,3.094-2.016s1.508-1.555,1.875-2.297h1.359v17.25Z"/></g><path class="cls-4" d="M782,90c0-7.732,6.044-14,13.5-14s13.5,6.268,13.5,14-6.044,14-13.5,14-13.5-6.268-13.5-14Z"/><g class="cls-12"><path d="M790.049,93.5l2.215-.188c.164,1.078,.545,1.889,1.143,2.432s1.318,.814,2.162,.814c1.016,0,1.875-.383,2.578-1.148s1.055-1.781,1.055-3.047c0-1.203-.338-2.152-1.014-2.848s-1.561-1.043-2.654-1.043c-.68,0-1.293,.154-1.84,.463s-.977,.709-1.289,1.201l-1.98-.258,1.664-8.824h8.543v2.016h-6.855l-.926,4.617c1.031-.719,2.113-1.078,3.246-1.078,1.5,0,2.766,.52,3.797,1.559s1.547,2.375,1.547,4.008c0,1.555-.453,2.898-1.359,4.031-1.102,1.391-2.605,2.086-4.512,2.086-1.562,0-2.838-.438-3.826-1.312s-1.553-2.035-1.693-3.48Z"/></g></svg>